PathFileType	4	(X/Y/Z)	./resultDataOpenSim/trcMotMarkerGrf/sub06/qtm-15-04.trc
DataRate	CameraRate	NumFrames	NumMarkers	Units	OrigDataRate	OrigDataStartFrame	OrigNumFrames
250.000000	250.000000	10	24	m	250.000000	200	533
Frame#	Time	L.Toe.Tip			R.Toe.Tip			L.Ankle.Lat			R.Ankle.Lat			L.Ankle.Med			R.Ankle.Med			L.Heel			R.Heel			L.Knee.Lat			R.Knee.Lat			L.Knee.Med			R.Knee.Med			L.Thigh.Upper			R.Thigh.Upper			L.ASIS			R.ASIS			V.Sacral			L.Acromium			R.Acromium			C7			L.Elbow			R.Elbow			L.Wrist.Lat			R.Wrist.Lat
		X1	Y1	Z1	X2	Y2	Z2	X3	Y3	Z3	X4	Y4	Z4	X5	Y5	Z5	X6	Y6	Z6	X7	Y7	Z7	X8	Y8	Z8	X9	Y9	Z9	X10	Y10	Z10	X11	Y11	Z11	X12	Y12	Z12	X13	Y13	Z13	X14	Y14	Z14	X15	Y15	Z15	X16	Y16	Z16	X17	Y17	Z17	X18	Y18	Z18	X19	Y19	Z19	X20	Y20	Z20	X21	Y21	Z21	X22	Y22	Z22	X23	Y23	Z23	X24	Y24	Z24

200	0.796	0.11951836	-0.065247857	-0.038058439	-0.43125272	0.098617987	0.08294441	0.00046313161	-0.031973747	-0.089215856	-0.44626484	0.23655756	0.094753559	-0.020086226	-0.015895844	-0.0066619318	-0.40272586	0.21781979	0.016681354	-0.078813834	-0.060908544	-0.063618569	-0.47046383	0.27591612	0.025661915	0.02066005	0.34656084	-0.10322917	-0.098720434	0.33020781	0.18268392	-0.032226714	0.34698958	0.0081838113	-0.088702581	0.32169159	0.052558256	-0.049612652	0.73095789	-0.18163089	-0.1356129	0.68405804	0.14834921	0.0096206723	0.76270744	-0.11503235	-0.039105623	0.74263102	0.11707292	-0.19740485	0.83810526	-0.021432736	-0.064231769	1.224699	-0.21487085	-0.12364839	1.2364061	0.14844822	-0.16734455	1.2686463	-0.051140818	-0.17122391	0.93432822	-0.27125912	-0.1623468	0.91557151	0.24627231	-0.11695473	0.70190658	-0.31106602	0.059283625	0.80512876	0.2485883
201	0.8	0.11967457	-0.065282406	-0.037976158	-0.41124601	0.1005803	0.082607951	0.0010341467	-0.032044371	-0.089620899	-0.42949929	0.23761054	0.095571487	-0.019839022	-0.015535237	-0.0071859763	-0.38618851	0.22019376	0.017260772	-0.078564674	-0.060557402	-0.064250339	-0.45504908	0.27707543	0.026768048	0.026414797	0.34693845	-0.10342619	-0.082362863	0.33190677	0.18214188	-0.024923	0.3472659	0.0082261684	-0.073738951	0.32365836	0.051976624	-0.04497865	0.73131929	-0.18215238	-0.12878795	0.68527919	0.14703112	0.014442559	0.76450335	-0.11650264	-0.033237918	0.74509046	0.11567272	-0.19302755	0.8388363	-0.022784947	-0.055854501	1.2261228	-0.21367076	-0.11450442	1.2382698	0.14888922	-0.15932177	1.2701988	-0.049807583	-0.15902594	0.93518065	-0.2708957	-0.15831391	0.91765372	0.24378533	-0.10331658	0.70327635	-0.31109335	0.061470964	0.80277721	0.25009385
202	0.804	0.11982933	-0.065254504	-0.03793118	-0.39112697	0.10246773	0.082362185	0.0016335841	-0.031991111	-0.089861069	-0.41251662	0.23849875	0.096478829	-0.019581992	-0.01518077	-0.0076042084	-0.36943938	0.22236389	0.01806589	-0.078338093	-0.060177013	-0.064739526	-0.43941698	0.27800694	0.028070274	0.0320753	0.34715038	-0.1035206	-0.065899573	0.33392668	0.18149469	-0.017901234	0.34742029	0.0084228426	-0.05870548	0.32559069	0.051214767	-0.040103541	0.7315732	-0.18267807	-0.1222966	0.68685906	0.14595962	0.019317706	0.76660287	-0.11786095	-0.027697987	0.74788336	0.11446572	-0.18884178	0.83993056	-0.023477304	-0.047587476	1.2277599	-0.21239779	-0.105401	1.2402731	0.14928311	-0.15155249	1.2717086	-0.048463817	-0.14690496	0.93631643	-0.27014615	-0.15435029	0.92043306	0.2412317	-0.089307852	0.70510423	-0.31097157	0.063228339	0.80062302	0.2515673
203	0.808	0.11994086	-0.065218514	-0.037935137	-0.3709259	0.10423435	0.082249448	0.002184584	-0.031806694	-0.089980394	-0.39539102	0.23918464	0.097414581	-0.019276104	-0.014839448	-0.0079050288	-0.35245977	0.22432462	0.018998887	-0.078174576	-0.05979737	-0.065060489	-0.42361107	0.27875654	0.029555325	0.037543464	0.34720718	-0.10345143	-0.049348754	0.33630141	0.18074579	-0.011331446	0.34741241	0.0086567605	-0.043578782	0.32763513	0.050215958	-0.034989051	0.73172588	-0.18322117	-0.11618864	0.68876473	0.14521122	0.024255708	0.76892359	-0.11910552	-0.022387325	0.75088014	0.11337263	-0.18421668	0.84125778	-0.023478124	-0.039518896	1.2295844	-0.2111276	-0.096394721	1.2423449	0.14965704	-0.14398814	1.2731723	-0.047127543	-0.13497398	0.937564	-0.26922954	-0.1504118	0.92364707	0.23863503	-0.075129232	0.70711603	-0.3106903	0.064599218	0.79868264	0.25293084
204	0.812	0.12001511	-0.065209716	-0.037951124	-0.35072654	0.10580262	0.082244567	0.002640645	-0.031541991	-0.090070862	-0.37816257	0.23965759	0.098355235	-0.018886093	-0.014529994	-0.0081003632	-0.33529373	0.2260899	0.019894544	-0.07809199	-0.059425059	-0.065240346	-0.40768356	0.27927486	0.031117941	0.042753373	0.34712538	-0.10319615	-0.032721811	0.33907349	0.1798923	-0.005279245	0.34724247	0.0088360252	-0.02846986	0.32986991	0.048974146	-0.029682413	0.73176427	-0.18376904	-0.11053429	0.69096489	0.14488103	0.02920466	0.77136493	-0.12022166	-0.017207131	0.75401285	0.11236233	-0.17877336	0.84253635	-0.023193106	-0.031703678	1.231587	-0.20990184	-0.087545785	1.2444357	0.15002604	-0.13658203	1.2745948	-0.045824536	-0.12327839	0.93889103	-0.26827012	-0.14648064	0.92709741	0.23603497	-0.060944874	0.70913705	-0.3102463	0.065651427	0.79696451	0.25416796
205	0.816	0.12009669	-0.065223493	-0.037928815	-0.33059368	0.10713491	0.082328924	0.0030181022	-0.031268985	-0.090158682	-0.36081493	0.23994872	0.099324463	-0.018363664	-0.014253863	-0.0082037105	-0.31805712	0.22766444	0.020673383	-0.078083321	-0.059042178	-0.06529044	-0.3916818	0.27949183	0.032651579	0.047636899	0.34689761	-0.10279642	-0.016023606	0.34229439	0.17893411	0.00040772228	0.34698085	0.0089935463	-0.013532433	0.33236147	0.047561308	-0.024240292	0.73167595	-0.18430757	-0.10543035	0.69343249	0.14509473	0.034108607	0.7738154	-0.12122062	-0.012112003	0.75721835	0.11144566	-0.17266456	0.84362265	-0.023096849	-0.024120278	1.2337407	-0.20871825	-0.078910375	1.2465116	0.15039748	-0.12929625	1.2759892	-0.044581033	-0.11178923	0.94030464	-0.26736837	-0.14251295	0.9306576	0.23347949	-0.046798833	0.71111423	-0.30963213	0.066459316	0.79545878	0.25531552
206	0.82	0.1202098	-0.065241063	-0.037840951	-0.31049739	0.1082716	0.082542036	0.0033574361	-0.03103469	-0.090205235	-0.34333846	0.24009544	0.10034479	-0.017709325	-0.013974296	-0.0082144028	-0.30082947	0.22904266	0.021374758	-0.078099116	-0.058632379	-0.065194644	-0.37566162	0.27937555	0.034114578	0.052100974	0.34650801	-0.10233099	0.00072627435	0.34600489	0.17787631	0.0058479267	0.34668503	0.0092241854	0.0012347692	0.33522368	0.046068975	-0.01873084	0.73146134	-0.18481649	-0.10095788	0.69614019	0.14598095	0.038955813	0.77616515	-0.12213706	-0.0070926546	0.76042983	0.11064614	-0.16641792	0.8445327	-0.023675807	-0.016681527	1.2359978	-0.20754781	-0.070523679	1.2485424	0.1507703	-0.1220719	1.277343	-0.043398666	-0.10043359	0.94179163	-0.26667194	-0.13849429	0.93426809	0.23103461	-0.032602421	0.71309079	-0.30882601	0.067087361	0.79414031	0.25641393
207	0.824	0.12033208	-0.065252656	-0.037689598	-0.29034975	0.10928316	0.082943673	0.0036704628	-0.0308427	-0.090198292	-0.32579503	0.24009973	0.10139232	-0.017030689	-0.013647442	-0.0081482876	-0.28365014	0.23022267	0.022018309	-0.07807368	-0.058193529	-0.06498526	-0.35967015	0.27892334	0.035507957	0.05606615	0.34596548	-0.1018752	0.017477175	0.35021223	0.17672247	0.010926073	0.34632947	0.0095815479	0.015939068	0.33858786	0.044539058	-0.013213313	0.73113081	-0.18526231	-0.097049759	0.69904435	0.14755323	0.043772734	0.77832425	-0.12299974	-0.0021381267	0.76358973	0.10999422	-0.16060711	0.84535524	-0.02522414	-0.0092879809	1.2383109	-0.20636393	-0.062382755	1.2504901	0.15113556	-0.11484057	1.2786191	-0.042264313	-0.089162938	0.94331878	-0.26632659	-0.13449784	0.93792704	0.22883384	-0.018217657	0.71515132	-0.30782915	0.067590276	0.79297905	0.25749096
208	0.828	0.12042858	-0.065257654	-0.037494465	-0.27009777	0.11020354	0.083564669	0.003938054	-0.030667879	-0.090187498	-0.30826381	0.23994567	0.10242567	-0.016452632	-0.013272765	-0.0080494588	-0.26654877	0.23120337	0.022569188	-0.077996207	-0.057731146	-0.064775865	-0.34367635	0.27815754	0.036850759	0.059524296	0.34531454	-0.10148303	0.034154329	0.35489042	0.17547079	0.015516833	0.34587595	0.010063972	0.030679281	0.34254115	0.042953024	-0.0077312292	0.73069382	-0.18561484	-0.093309211	0.70206289	0.14950782	0.048613352	0.78024081	-0.1238132	0.0027871678	0.76665985	0.10952961	-0.15543667	0.84617858	-0.027563429	-0.0018604581	1.2406477	-0.20515456	-0.054454456	1.2523107	0.15147839	-0.10758099	1.2798118	-0.041191112	-0.078030815	0.94484932	-0.26634064	-0.13063186	0.94165015	0.22704292	-0.0035706572	0.71736351	-0.30670947	0.068021211	0.79194724	0.25857617
209	0.832	0.12048788	-0.065258625	-0.037283818	-0.24975456	0.11101518	0.08440516	0.004145672	-0.030483638	-0.090221317	-0.29075952	0.23963385	0.10343544	-0.01599223	-0.012885163	-0.0079491021	-0.24945339	0.23195997	0.023068421	-0.07791379	-0.057255204	-0.064670322	-0.32755968	0.27711679	0.038171314	0.062523526	0.34461632	-0.10119581	0.050677891	0.35999123	0.17411929	0.019627052	0.34536766	0.010598078	0.045546956	0.34710373	0.041264586	-0.0023333259	0.7301591	-0.18587189	-0.089051378	0.70507814	0.15115426	0.053543496	0.78190722	-0.12456006	0.0077360847	0.769624	0.10929015	-0.15060999	0.84702753	-0.030181849	0.0056542938	1.24299	-0.20392384	-0.046700675	1.2539675	0.15177936	-0.10031875	1.2809722	-0.040223371	-0.067164296	0.94634268	-0.26656186	-0.12691419	0.94541175	0.22572532	0.011320909	0.71975758	-0.30559169	0.068429519	0.79102224	0.25971615
